<svg width="44" height="44" viewBox="0 0 44 44" fill="none" xmlns="http://www.w3.org/2000/svg">
<path d="M30.25 44H13.75C12.9906 44 12.375 43.3843 12.375 42.625C12.375 41.8657 12.9906 41.25 13.75 41.25H30.25C31.0094 41.25 31.625 41.8657 31.625 42.625C31.625 43.3843 31.0094 44 30.25 44Z" fill="white"/>
<path d="M43.1926 26.1649L37.6926 13.8758C37.4711 13.381 36.9796 13.0625 36.4375 13.0625C35.8954 13.0625 35.4039 13.381 35.1825 13.8758L29.6825 26.1649C29.594 26.3624 29.5577 26.5695 29.5646 26.7721C29.5641 26.7856 29.5625 26.7988 29.5625 26.8125V28.875C29.5625 32.6659 32.6466 35.75 36.4375 35.75C40.2284 35.75 43.3125 32.6659 43.3125 28.875V26.8125C43.3125 26.7988 43.3109 26.7857 43.3104 26.7721C43.3174 26.5695 43.281 26.3624 43.1926 26.1649ZM36.4375 17.8034L39.8541 25.4375H33.0209L36.4375 17.8034Z" fill="white"/>
<path d="M14.3176 26.1649L8.81762 13.8758C8.59607 13.381 8.10459 13.0625 7.5625 13.0625C7.02041 13.0625 6.52893 13.381 6.30747 13.8758L0.807469 26.1649C0.719039 26.3624 0.682688 26.5695 0.689563 26.7721C0.689133 26.7857 0.6875 26.7988 0.6875 26.8125V28.875C0.6875 32.6659 3.77163 35.75 7.5625 35.75C11.3534 35.75 14.4375 32.6659 14.4375 28.875V26.8125C14.4375 26.7988 14.4359 26.7857 14.4354 26.7721C14.4424 26.5695 14.406 26.3624 14.3176 26.1649ZM7.5625 17.8034L10.9791 25.4375H4.14588L7.5625 17.8034Z" fill="white"/>
<path d="M31.8705 13.0625H23.375V9.42378C25.4463 8.80503 26.9368 6.82701 26.8043 4.52887C26.6636 2.08825 24.6753 0.12148 22.2334 0.00555019C19.4741 -0.125504 17.1875 2.08146 17.1875 4.81246C17.1875 6.98832 18.6394 8.83056 20.625 9.42378V13.0625H12.1295C11.818 13.0625 11.6101 13.3834 11.7372 13.6676L12.5834 15.5583C12.6526 15.7129 12.8061 15.8124 12.9756 15.8124H20.625V38.0702C20.625 38.3075 20.8174 38.4999 21.0547 38.4999H22.9453C23.1826 38.4999 23.375 38.3075 23.375 38.0702V15.8125H31.0243C31.1937 15.8125 31.3472 15.7129 31.4165 15.5583L32.2627 13.6677C32.3899 13.3834 32.1819 13.0625 31.8705 13.0625Z" fill="white"/>
</svg>
