<svg width="44" height="44" viewBox="0 0 44 44" fill="none" xmlns="http://www.w3.org/2000/svg">
<g clip-path="url(#clip0)">
<path d="M44 29.3716V27.5645C44 25.5243 42.3402 23.8644 40.2999 23.8644H22.0574C20.0172 23.8644 18.3573 25.5243 18.3573 27.5645V29.3716H44Z" fill="white"/>
<path d="M18.3573 32.9857V38.4641C18.3573 40.5043 20.0172 42.1642 22.0574 42.1642H40.2999C42.3402 42.1642 44 40.5043 44 38.4641V32.9857H18.3573Z" fill="white"/>
<path d="M25.6427 7.34298V5.53594C25.6427 3.49571 23.9828 1.83582 21.9426 1.83582H3.70013C1.65989 1.83582 0 3.49571 0 5.53594V7.34298H25.6427Z" fill="white"/>
<path d="M0 10.957V16.4355C0 18.4757 1.65989 20.1356 3.70013 20.1356H21.9426C23.9828 20.1356 25.6427 18.4757 25.6427 16.4355V10.957H0Z" fill="white"/>
</g>
<defs>
<clipPath id="clip0">
<rect width="44" height="44" fill="white"/>
</clipPath>
</defs>
</svg>
