<svg width="44" height="44" viewBox="0 0 44 44" fill="none" xmlns="http://www.w3.org/2000/svg">
<path d="M40.8636 16.5443C40.4348 15.9958 39.8884 15.553 39.275 15.2365C38.2015 6.60039 30.8353 0 22 0C13.1646 0 5.79846 6.60039 4.7249 15.2365C4.11153 15.553 3.56511 15.9958 3.13632 16.5443C-1.00991 21.8486 -1.02205 29.4787 3.13632 34.7983C5.05911 37.2582 8.91364 37.3247 10.89 34.7056C11.8177 33.4762 12.1082 31.9246 11.687 30.4488C10.8588 27.5465 10.8588 23.796 11.687 20.8939C11.7227 20.8939 12.4115 18.6536 10.8899 16.6369C10.2571 15.7985 9.39948 15.2028 8.43073 14.9043C9.61151 8.44935 15.2675 3.6141 22 3.6141C28.7324 3.6141 34.3884 8.44935 35.5691 14.9043C33.1269 15.6569 31.5629 18.2657 32.3127 20.8938C32.4138 20.8938 33.6488 25.7672 32.3128 30.4487C31.7489 32.4245 32.4852 34.4283 34.014 35.6246C33.6013 36.1026 33.1314 36.5261 32.6027 36.8915C30.3078 38.039 30.5163 37.9777 29.6523 38.2007C28.8542 38.4067 28.1008 38.5064 27.4784 38.5515C27.4784 37.4787 26.6353 36.7143 25.6714 36.7143H18.3284C17.3304 36.7143 16.5213 37.5234 16.5213 38.5214V42.1929C16.5213 43.1909 17.3304 43.9999 18.3284 43.9999H25.6714C26.6392 43.9999 27.4784 43.2287 27.4784 42.1725C31.6409 41.9364 35.5226 40.2071 37.7743 36.5969C38.9882 36.4072 40.1074 35.7654 40.8634 34.7983C45.0099 29.4939 45.0218 21.8638 40.8636 16.5443Z" fill="white"/>
</svg>
