<svg width="44" height="44" viewBox="0 0 44 44" fill="none" xmlns="http://www.w3.org/2000/svg">
<path fill-rule="evenodd" clip-rule="evenodd" d="M22 44C34.1503 44 44 34.1503 44 22C44 9.84974 34.1503 0 22 0C9.84974 0 0 9.84974 0 22C0 34.1503 9.84974 44 22 44ZM22 6.28571C19.4005 6.28571 17.2857 8.48866 17.2857 11.1964C17.2857 13.9042 19.4005 16.1071 22 16.1071C24.5995 16.1071 26.7143 13.9042 26.7143 11.1964C26.7143 8.48866 24.5995 6.28571 22 6.28571ZM22 18.0714C19.4005 18.0714 17.2857 20.2744 17.2857 22.9821V32.8036C17.2857 35.5113 19.4005 37.7143 22 37.7143C24.5995 37.7143 26.7143 35.5113 26.7143 32.8036V22.9821C26.7143 20.2744 24.5995 18.0714 22 18.0714Z" fill="white"/>
</svg>
