<svg width="168" height="33" viewBox="0 0 168 33" fill="none" xmlns="http://www.w3.org/2000/svg">
<path d="M39.6367 26.2324C40.7441 26.2324 41.4004 25.5625 41.4004 24.4004V9.26562H50.7656V24.4004C50.7656 25.5625 51.4355 26.2324 52.5293 26.2324C53.6367 26.2324 54.293 25.5625 54.293 24.4004V8.10352C54.293 6.95508 53.6367 6.27148 52.5293 6.27148H39.6367C38.543 6.27148 37.873 6.95508 37.873 8.10352V24.4004C37.873 25.5625 38.543 26.2324 39.6367 26.2324ZM67.1007 26.3281C72.8429 26.3281 76.4523 22.418 76.4523 16.1426C76.4523 9.86719 72.8429 5.94336 67.1007 5.94336C61.3448 5.94336 57.7355 9.86719 57.7355 16.1426C57.7355 22.418 61.3448 26.3281 67.1007 26.3281ZM67.1007 23.3203C63.5734 23.3203 61.3448 20.5312 61.3448 16.1426C61.3448 11.7402 63.5734 8.95117 67.1007 8.95117C70.6144 8.95117 72.8566 11.7402 72.8566 16.1426C72.8566 20.5312 70.6144 23.3203 67.1007 23.3203ZM77.5979 28.3789C77.5979 29.4043 78.2131 30.0742 79.2112 30.0742C80.1955 30.0742 80.8108 29.4043 80.8108 28.3789V26H94.3186V28.3789C94.3186 29.4043 94.9338 30.0742 95.9182 30.0742C96.9162 30.0742 97.5178 29.4043 97.5178 28.3789V24.7832C97.5178 23.7031 96.8889 23.0195 95.9045 23.0195H95.0569V8.10352C95.0569 6.95508 94.4006 6.27148 93.2932 6.27148H84.01C82.5471 6.27148 81.6721 7.06445 81.5764 8.47266L81.0022 17.8789C80.8381 20.6953 80.4006 22.2676 79.0881 23.0059H78.9241C78.0491 23.1289 77.5979 23.7305 77.5979 24.8652V28.3789ZM82.9299 23.0195V22.9102C83.7639 21.9258 84.1194 20.5586 84.2698 18.0977L84.8303 9.23828H91.5432V23.0195H82.9299ZM102.191 26H108.193C112.117 26 114.837 23.5391 114.837 19.8887C114.837 16.293 112.062 13.8457 108.083 13.8457H103.954V9.23828H111.57C112.527 9.23828 113.183 8.67773 113.183 7.76172C113.183 6.8457 112.54 6.27148 111.57 6.27148H102.191C101.097 6.27148 100.427 6.95508 100.427 8.10352V24.168C100.427 25.3164 101.097 26 102.191 26ZM103.954 23.1016V16.6621H107.29C109.792 16.6621 111.228 17.7969 111.228 19.8887C111.228 21.9668 109.792 23.1016 107.304 23.1016H103.954ZM120.18 26H129.791C130.762 26 131.405 25.4258 131.405 24.5098C131.405 23.5938 130.762 23.0195 129.791 23.0195H121.944V17.3867H129.381C130.297 17.3867 130.899 16.8398 130.899 15.9785C130.899 15.1172 130.284 14.584 129.381 14.584H121.944V9.25195H129.791C130.762 9.25195 131.405 8.67773 131.405 7.76172C131.405 6.8457 130.762 6.27148 129.791 6.27148H120.18C119.086 6.27148 118.416 6.95508 118.416 8.10352V24.168C118.416 25.3164 119.086 26 120.18 26ZM136.693 26.2324C137.8 26.2324 138.457 25.5625 138.457 24.4004V19.4785H142.449C146.441 19.4785 149.244 16.8125 149.244 12.875C149.244 8.9375 146.523 6.27148 142.599 6.27148H136.693C135.599 6.27148 134.929 6.95508 134.929 8.10352V24.4004C134.929 25.5625 135.599 26.2324 136.693 26.2324ZM138.457 16.6348V9.15625H141.67C144.199 9.15625 145.662 10.5098 145.662 12.875C145.662 15.2676 144.185 16.6348 141.656 16.6348H138.457ZM155.12 26.1504C157.964 26.1504 159.632 24.5918 161.491 20.3945L166.809 8.37695C166.919 8.10352 166.973 7.78906 166.973 7.51562C166.973 6.61328 166.331 5.99805 165.305 5.99805C164.444 5.99805 164.007 6.35352 163.651 7.24219L159.344 17.8926H159.167L154.682 7.25586C154.3 6.33984 153.848 5.99805 153.028 5.99805C152.03 5.99805 151.305 6.6543 151.305 7.55664C151.305 7.83008 151.36 8.14453 151.483 8.4043L157.376 21.4746C156.719 22.5273 155.926 23.1289 154.45 23.1289H154.395C153.329 23.1289 152.755 23.6484 152.755 24.4551C152.755 25.5352 153.63 26.1504 155.12 26.1504Z" fill="white"/>
<path d="M11.9863 2H1.43836C0.643974 2 0 2.64397 0 3.43836V13.9863C0 14.7807 0.643974 15.4247 1.43836 15.4247H11.9863C12.7807 15.4247 13.4247 14.7807 13.4247 13.9863V3.43836C13.4247 2.64397 12.7807 2 11.9863 2Z" fill="#F9E84B"/>
<path d="M26.5616 2H16.0137C15.2193 2 14.5753 2.64397 14.5753 3.43836V13.9863C14.5753 14.7807 15.2193 15.4247 16.0137 15.4247H26.5616C27.356 15.4247 28 14.7807 28 13.9863V3.43836C28 2.64397 27.356 2 26.5616 2Z" fill="#D64BF9"/>
<path d="M26.5616 16.5754H16.0137C15.2193 16.5754 14.5753 17.2194 14.5753 18.0138V28.5617C14.5753 29.3561 15.2193 30.0001 16.0137 30.0001H26.5616C27.356 30.0001 28 29.3561 28 28.5617V18.0138C28 17.2194 27.356 16.5754 26.5616 16.5754Z" fill="#F9914B"/>
<path d="M11.9863 16.5754H1.43836C0.643974 16.5754 0 17.2194 0 18.0138V28.5617C0 29.3561 0.643974 30.0001 1.43836 30.0001H11.9863C12.7807 30.0001 13.4247 29.3561 13.4247 28.5617V18.0138C13.4247 17.2194 12.7807 16.5754 11.9863 16.5754Z" fill="#4BF9B6"/>
</svg>
