<svg width="44" height="44" viewBox="0 0 44 44" fill="none" xmlns="http://www.w3.org/2000/svg">
<g clip-path="url(#clip0)">
<path d="M28.4248 9.12143C29.9273 9.12143 31.1497 7.89903 31.1497 6.39653C31.1497 4.89404 29.9273 3.67163 28.4248 3.67163C26.9223 3.67163 25.6999 4.89404 25.6999 6.39653C25.6999 7.89911 26.9223 9.12143 28.4248 9.12143Z" fill="white"/>
<path d="M37.6033 12.8501C36.1008 12.8501 34.8784 14.0725 34.8784 15.575C34.8784 17.0775 36.1008 18.2999 37.6033 18.2999C39.1058 18.2999 40.3282 17.0775 40.3282 15.575C40.3281 14.0725 39.1057 12.8501 37.6033 12.8501Z" fill="white"/>
<path d="M39.7988 4.20102C39.0931 3.49533 37.949 3.49533 37.2434 4.20102L26.2292 15.2152C25.5235 15.9209 25.5235 17.0651 26.2292 17.7707C26.582 18.1236 27.0445 18.3 27.5069 18.3C27.9693 18.3 28.4318 18.1236 28.7846 17.7707L39.7988 6.75649C40.5045 6.0508 40.5045 4.90661 39.7988 4.20102Z" fill="white"/>
<path d="M9.28757 18.1926C9.47567 17.0908 8.75295 16.0393 7.65686 15.82L2.16137 14.7209C1.07716 14.5041 0 15.3058 0 16.5272V36.6533C0 37.8304 1.00832 38.6247 2.06258 38.4744L4.42858 38.1364C5.31668 38.0096 6.02125 37.3239 6.17227 36.4396L9.28757 18.1926Z" fill="white"/>
<path d="M42.79 33.8016L24.4324 40.2268C24.0345 40.3665 23.6117 40.3581 23.2337 40.226L11.7202 36.1618C10.7768 35.8288 10.2078 34.8674 10.3697 33.8801L12.3397 21.8728C12.5289 20.7195 13.6366 19.9529 14.7826 20.1822L23.3043 21.8865C25.2626 22.2786 27.0064 23.2378 28.3588 24.5899C29.4848 25.7156 28.9476 27.6394 27.4072 28.0418C26.4199 28.2996 25.512 28.4537 24.7533 28.4537C20.9852 28.4537 18.3599 27.3316 17.6078 26.9667C16.4157 26.0535 14.6572 26.8933 14.6572 28.4253C14.6572 29.2488 15.1993 29.9457 15.9471 30.1781C16.9831 30.6918 20.185 32.0677 24.7533 32.0677C28.633 32.0677 34.4364 29.4017 37.8901 27.6341C38.4663 27.3392 39.149 27.3293 39.73 27.6146C41.3115 28.3914 42.6864 29.5787 43.6961 31.0945C44.3509 32.0767 43.9015 33.4129 42.79 33.8016Z" fill="white"/>
</g>
<defs>
<clipPath id="clip0">
<rect width="44" height="44" fill="white"/>
</clipPath>
</defs>
</svg>
