<svg width="44" height="44" viewBox="0 0 44 44" fill="none" xmlns="http://www.w3.org/2000/svg">
<path d="M26.3058 21.7697C32.392 21.7697 37.3427 16.8867 37.3427 10.8848C37.3427 4.88297 32.392 0 26.3058 0C20.2195 0 15.2679 4.88297 15.2679 10.8848C15.2679 16.8867 20.2195 21.7697 26.3058 21.7697ZM24.9986 4.4868V4.19117C24.9986 3.47875 25.5833 2.90211 26.3058 2.90211C27.0273 2.90211 27.6129 3.47875 27.6129 4.19117V4.48852C29.1685 4.81766 30.3388 6.18406 30.3388 7.81516C30.3388 8.52672 29.7532 9.10422 29.0317 9.10422C28.3092 9.10422 27.7245 8.52672 27.7245 7.81516C27.7245 7.36055 27.3489 6.99016 26.8879 6.99016H25.7158C25.2548 6.99016 24.8792 7.36055 24.8792 7.81516C24.8792 8.07555 25.0056 8.32305 25.2182 8.47773L26.3058 9.2718L28.948 11.2002C29.816 11.8336 30.3388 12.8468 30.3458 13.9124V13.9245C30.3519 14.8337 29.999 15.6913 29.3506 16.3384C28.8696 16.8188 28.2683 17.1411 27.6129 17.2769V17.5785C27.6129 18.2909 27.0273 18.8676 26.3058 18.8676C25.5833 18.8676 24.9986 18.2909 24.9986 17.5785V17.2812C24.3607 17.1471 23.7742 16.8377 23.3001 16.3754C22.6439 15.7369 22.2796 14.8844 22.2744 13.9752C22.2701 13.2636 22.8513 12.6827 23.5729 12.6784H23.5816C24.2997 12.6784 24.8844 13.2507 24.8888 13.9597C24.8905 14.4046 25.2535 14.7795 25.7297 14.7795C26.452 14.7752 26.183 14.7768 26.9001 14.7727C27.3641 14.769 27.735 14.3977 27.7315 13.9416V13.9296C27.7297 13.6718 27.6034 13.426 27.3925 13.2722L26.3058 12.479L23.6626 10.5505C22.7877 9.91117 22.2648 8.88852 22.2648 7.81516C22.2648 6.18062 23.4387 4.81336 24.9986 4.4868Z" fill="white"/>
<path d="M8.4217 27.9633C8.08663 27.3905 7.34232 27.1912 6.75783 27.5237L0.609042 31.0239C0.0268244 31.3562 -0.172912 32.0906 0.163207 32.6655L6.4476 43.3993C6.78398 43.9732 7.5282 44.1704 8.11146 43.8389L14.2603 40.3378C14.8433 40.0063 15.0423 39.2719 14.7061 38.697L8.4217 27.9633Z" fill="white"/>
<path d="M43.6537 25.8208C43.0619 25.0104 41.9169 24.8274 41.096 25.4109C38.6053 27.1803 33.8228 30.5783 33.4429 30.849C33.2677 30.996 33.0838 31.1292 32.8921 31.2469C32.14 31.7135 31.2677 31.9628 30.357 31.9628H24.0957C23.3741 31.9628 22.7885 31.3861 22.7885 30.6737C22.7885 29.9604 23.375 29.3846 24.0957 29.3846H30.7919C31.7758 29.3846 32.5636 28.5768 32.5226 27.6049C32.4843 26.6828 31.686 25.9678 30.7501 25.9678H25.6529C25.3078 25.6077 24.9296 25.2777 24.5244 24.9829C23.131 23.9697 21.409 23.3707 19.5449 23.3707C16.2308 23.3707 12.9332 25.4298 11.5659 28.1781L16.9131 37.3106H26.9436C28.913 37.3106 30.8529 36.8139 32.5601 35.8454C33.1518 35.5103 33.7853 35.1072 34.472 34.6208C37.3496 32.5824 43.2328 28.3474 43.2371 28.3448C44.0598 27.7621 44.2463 26.6312 43.6537 25.8208Z" fill="white"/>
</svg>
