<svg width="44" height="44" viewBox="0 0 44 44" fill="none" xmlns="http://www.w3.org/2000/svg">
<g clip-path="url(#clip0)">
<path d="M43.5973 27.3196L40.7306 24.453C40.4353 24.1576 40.0216 24.0126 39.6064 24.0587L32.7296 24.823C30.7366 21.7476 28.3505 18.7617 25.9197 16.3308L17.3198 7.73095C14.3015 4.71252 11.0357 2.34176 8.1242 1.05527C4.95081 -0.346904 2.43567 -0.351545 1.04192 1.04212C-0.351656 2.43578 -0.347015 4.95101 1.05516 8.12431C2.34165 11.0358 4.71241 14.3015 7.73075 17.3199L16.3306 25.9198C18.7614 28.3506 21.7474 30.7367 24.8228 32.7297L24.0585 39.6065C24.0124 40.0217 24.1574 40.4354 24.4528 40.7308L27.3194 43.5974C27.5792 43.8572 27.9298 44.0002 28.2917 44.0002C28.3597 44.0002 28.428 43.9952 28.4962 43.9849C28.9277 43.92 29.3029 43.6541 29.507 43.2685L32.9415 36.7807C33.4797 36.9326 34.0887 37.0627 34.6769 37.0627C35.3321 37.0627 35.9599 36.9016 36.4307 36.4309C37.3239 35.5376 37.1019 34.0791 36.7811 32.9414L43.2683 29.5073C43.654 29.3032 43.9198 28.928 43.9847 28.4965C44.0496 28.0648 43.9059 27.6281 43.5973 27.3196Z" fill="white"/>
<path d="M40.7305 5.34189L36.9084 1.51971C36.5453 1.15669 36.0101 1.02605 35.5205 1.18127L20.5625 5.92407C20.2553 6.02145 20.1607 6.40974 20.3885 6.63758L28.9182 15.1673C29.0658 15.3149 29.2981 15.3351 29.4689 15.2152L40.5226 7.45774C40.7713 7.28319 40.9674 7.03842 41.0628 6.7499C41.2297 6.24524 41.0929 5.70423 40.7305 5.34189Z" fill="white"/>
<path d="M5.34183 40.7775L1.51965 36.9554C1.15663 36.5923 1.02599 36.0571 1.18121 35.5675L5.92401 20.6095C6.02138 20.3023 6.40968 20.2077 6.63751 20.4355L15.1673 28.9652C15.3148 29.1127 15.335 29.3451 15.2151 29.5159L7.45767 40.5696C7.28312 40.8184 7.03836 41.0145 6.74984 41.1099C6.2451 41.2767 5.70408 41.1399 5.34183 40.7775Z" fill="white"/>
</g>
<defs>
<clipPath id="clip0">
<rect width="44" height="44" fill="white"/>
</clipPath>
</defs>
</svg>
