<svg width="44" height="44" viewBox="0 0 44 44" fill="none" xmlns="http://www.w3.org/2000/svg">
<g clip-path="url(#clip0)">
<path d="M31.4557 0H1.28906C0.577156 0 0 0.577156 0 1.28906V42.7109C0 43.4228 0.577156 44 1.28906 44H31.4557C32.1676 44 32.7448 43.4228 32.7448 42.7109V1.28906C32.7448 0.577156 32.1677 0 31.4557 0ZM13.5332 25.235L9.61761 29.1505C9.37587 29.3923 9.04802 29.528 8.70616 29.528C8.3643 29.528 8.03636 29.3923 7.7947 29.1504L5.94937 27.3051C5.44594 26.8017 5.44594 25.9855 5.94937 25.4821C6.45279 24.9787 7.26902 24.9787 7.77236 25.4821L8.70616 26.4159L11.7102 23.4119C12.2135 22.9085 13.0298 22.9084 13.5332 23.4119C14.0366 23.9154 14.0366 24.7316 13.5332 25.235ZM13.5332 17.4143L9.61761 21.3299C9.37587 21.5716 9.04802 21.7074 8.70616 21.7074C8.3643 21.7074 8.03636 21.5716 7.7947 21.3298L5.94937 19.4844C5.44594 18.981 5.44594 18.1649 5.94937 17.6614C6.45279 17.158 7.26902 17.1581 7.77236 17.6614L8.70616 18.5952L11.7102 15.5912C12.2135 15.0878 13.0298 15.0878 13.5332 15.5912C14.0366 16.0946 14.0366 16.9109 13.5332 17.4143ZM13.5332 9.59355L9.61761 13.5091C9.37587 13.7509 9.04802 13.8866 8.70616 13.8866C8.3643 13.8866 8.03636 13.7509 7.7947 13.509L5.94937 11.6637C5.44594 11.1603 5.44594 10.3441 5.94937 9.8407C6.45279 9.33728 7.26902 9.33737 7.77236 9.8407L8.70616 10.7745L11.7102 7.77047C12.2135 7.26705 13.0298 7.26705 13.5332 7.77047C14.0366 8.27398 14.0366 9.09013 13.5332 9.59355ZM25.8191 36.109H17.6327C16.9208 36.109 16.3437 35.5319 16.3437 34.82C16.3437 34.1081 16.9208 33.5309 17.6327 33.5309H25.8191C26.531 33.5309 27.1081 34.1081 27.1081 34.82C27.1081 35.5319 26.5311 36.109 25.8191 36.109ZM25.8191 27.9888H17.6327C16.9208 27.9888 16.3437 27.4117 16.3437 26.6997C16.3437 25.9878 16.9208 25.4107 17.6327 25.4107H25.8191C26.531 25.4107 27.1081 25.9878 27.1081 26.6997C27.1081 27.4117 26.5311 27.9888 25.8191 27.9888ZM25.8191 20.1682H17.6327C16.9208 20.1682 16.3437 19.591 16.3437 18.8791C16.3437 18.1672 16.9208 17.59 17.6327 17.59H25.8191C26.531 17.59 27.1081 18.1672 27.1081 18.8791C27.1081 19.591 26.5311 20.1682 25.8191 20.1682ZM25.8191 12.3474H17.6327C16.9208 12.3474 16.3437 11.7703 16.3437 11.0584C16.3437 10.3464 16.9208 9.76929 17.6327 9.76929H25.8191C26.531 9.76929 27.1081 10.3464 27.1081 11.0584C27.1081 11.7703 26.5311 12.3474 25.8191 12.3474Z" fill="white"/>
<path d="M44 4.37516C44 1.96273 42.0373 0 39.6248 0C37.2123 0 35.2496 1.96273 35.2496 4.37516V8.15598H44V4.37516Z" fill="white"/>
<path d="M35.3265 35.5483C35.2113 35.8665 35.2258 36.2172 35.367 36.5247L38.4532 43.2486C38.6633 43.7065 39.121 44 39.6248 44C40.1286 44 40.5863 43.7065 40.7964 43.2486L43.8825 36.5247C44.0237 36.2172 44.0382 35.8664 43.923 35.5483L43.131 33.36H36.1186L35.3265 35.5483Z" fill="white"/>
<path d="M44 29.4928V10.7341H35.2496V29.4928C35.2496 30.2047 35.8267 30.7819 36.5386 30.7819H42.7109C43.4228 30.7819 44 30.2047 44 29.4928Z" fill="white"/>
</g>
<defs>
<clipPath id="clip0">
<rect width="44" height="44" fill="white"/>
</clipPath>
</defs>
</svg>
