<svg width="157" height="79" viewBox="0 0 157 79" fill="none" xmlns="http://www.w3.org/2000/svg">
    <defs>
        <linearGradient id="gradient" x1="156" y1="79" x2="1.16281e-06" y2="79.0108" gradientUnits="userSpaceOnUse">
            <stop stop-color="#00CD7E"/>
            <stop offset="0.497499" stop-color="#FDE562"/>
            <stop offset="1" stop-color="#CD001B"/>
        </linearGradient>
    </defs>
<path fill-rule="evenodd" clip-rule="evenodd" d="M156.423 78.7096C156.423 68.3733 154.4 58.1382 150.469 48.5887C146.539 39.0392 140.778 30.3624 133.515 23.0535C126.253 15.7446 117.631 9.94691 108.142 5.99139C98.6526 2.03588 88.4822 0 78.2114 0C67.9406 0 57.7702 2.03588 48.2812 5.99139C38.7922 9.94691 30.1702 15.7446 22.9076 23.0535C15.645 30.3624 9.88396 39.0392 5.95347 48.5887C2.023 58.1382 0 68.3733 0 78.7096H19.5528C19.5528 70.9571 21.0701 63.2813 24.0179 56.1189C26.9658 48.9568 31.2866 42.4491 36.7336 36.9675C42.1805 31.4859 48.647 27.1376 55.7637 24.1709C62.8808 21.2043 70.508 19.6774 78.2114 19.6774C85.9148 19.6774 93.542 21.2043 100.659 24.1709C107.776 27.1376 114.242 31.4859 119.689 36.9675C125.136 42.4491 129.457 48.9568 132.405 56.1189C135.352 63.2813 136.87 70.9571 136.87 78.7096H156.423Z" fill="url(#gradient)"/>
</svg>
