<svg width="38" height="44" viewBox="0 0 38 44" fill="none" xmlns="http://www.w3.org/2000/svg">
<path d="M35.9075 3.46637L19.2825 0.028875C19.0962 -0.009625 18.9038 -0.009625 18.7174 0.028875L2.09244 3.46637C1.44995 3.59923 0.989563 4.16118 0.989563 4.8125V23.7389C0.989563 26.5885 1.72522 29.412 3.11704 31.9043C4.50887 34.3966 6.5314 36.5123 8.9661 38.0224L18.2657 43.791C18.4903 43.9304 18.7451 44 19 44C19.2548 44 19.5096 43.9303 19.7343 43.791L29.0339 38.0224C31.4686 36.5123 33.4911 34.3967 34.8829 31.9043C36.2747 29.412 37.0104 26.5885 37.0104 23.7389V4.8125C37.0104 4.16118 36.5499 3.59923 35.9075 3.46637ZM20.3854 30.3982V30.8987C20.3854 31.639 19.8121 32.2761 19.067 32.311C18.2713 32.3481 17.6146 31.7189 17.6146 30.9375V30.4001C17.6146 30.2115 17.4899 30.0469 17.3086 29.9899C15.3954 29.3867 13.9197 27.7826 13.5475 25.7341C13.4109 24.9822 13.8816 24.233 14.6375 24.0878C15.4055 23.9402 16.1399 24.4498 16.2681 25.2105C16.5025 26.5999 17.7515 27.5903 19.1942 27.4936C20.5572 27.4021 21.6634 26.3084 21.7632 24.9562C21.882 23.347 20.5965 22 19 22C15.9443 22 13.4583 19.5327 13.4583 16.5C13.4583 14.0517 15.0785 11.972 17.3106 11.2613C17.4909 11.2039 17.6146 11.0397 17.6146 10.8518V10.3513C17.6146 9.61099 18.1879 8.97394 18.933 8.93905C19.7285 8.90184 20.3854 9.53107 20.3854 10.3125V10.8499C20.3854 11.0385 20.5101 11.203 20.6912 11.2601C22.6261 11.8701 24.1135 13.5036 24.4646 15.5855C24.5909 16.3345 24.0816 17.0433 23.327 17.1687C22.572 17.2943 21.8582 16.7886 21.7318 16.0395C21.4975 14.6502 20.2484 13.6598 18.8058 13.7565C17.4428 13.848 16.3366 14.9417 16.2368 16.2939C16.118 17.9029 17.4035 19.25 19 19.25C22.0557 19.25 24.5416 21.7173 24.5416 24.75C24.5416 27.1983 22.9215 29.278 20.6893 29.9887C20.509 30.0461 20.3854 30.2103 20.3854 30.3982Z" fill="white"/>
</svg>
